<mxfile host="app.diagrams.net" agent="Mozilla/5.0 (Windows NT 10.0; Win64; x64) AppleWebKit/537.36 (KHTML, like Gecko) Chrome/133.0.0.0 Safari/537.36 OPR/118.0.0.0 (Edition std-2)" version="26.2.14">
  <diagram name="Страница — 1" id="f2nnMx-TeiR3YUCKxG_k">
    <mxGraphModel dx="2894" dy="913" grid="1" gridSize="10" guides="1" tooltips="1" connect="1" arrows="1" fold="1" page="1" pageScale="1" pageWidth="827" pageHeight="1169" math="0" shadow="0">
      <root>
        <mxCell id="0" />
        <mxCell id="1" parent="0" />
        <mxCell id="YfZX0ms7RBEgDN2RC2Rf-1" value="&lt;font style=&quot;font-size: 36px;&quot;&gt;&lt;b&gt;Деятельность птицефермы&lt;/b&gt;&lt;/font&gt;" style="text;html=1;align=center;verticalAlign=middle;resizable=0;points=[];autosize=1;strokeColor=none;fillColor=none;" parent="1" vertex="1">
          <mxGeometry x="10" y="63" width="520" height="60" as="geometry" />
        </mxCell>
        <mxCell id="YfZX0ms7RBEgDN2RC2Rf-5" value="" style="rounded=0;whiteSpace=wrap;html=1;" parent="1" vertex="1">
          <mxGeometry x="-461.5" y="277.5" width="120" height="80" as="geometry" />
        </mxCell>
        <mxCell id="YfZX0ms7RBEgDN2RC2Rf-6" value="" style="endArrow=none;html=1;rounded=0;entryX=1;entryY=0.75;entryDx=0;entryDy=0;exitX=0;exitY=0.75;exitDx=0;exitDy=0;" parent="1" source="YfZX0ms7RBEgDN2RC2Rf-5" target="YfZX0ms7RBEgDN2RC2Rf-5" edge="1">
          <mxGeometry width="50" height="50" relative="1" as="geometry">
            <mxPoint x="-191.5" y="457.5" as="sourcePoint" />
            <mxPoint x="-141.5" y="407.5" as="targetPoint" />
          </mxGeometry>
        </mxCell>
        <mxCell id="YfZX0ms7RBEgDN2RC2Rf-7" value="" style="endArrow=none;html=1;rounded=0;entryX=0.5;entryY=1;entryDx=0;entryDy=0;" parent="1" target="YfZX0ms7RBEgDN2RC2Rf-5" edge="1">
          <mxGeometry width="50" height="50" relative="1" as="geometry">
            <mxPoint x="-401.5" y="337.5" as="sourcePoint" />
            <mxPoint x="-141.5" y="407.5" as="targetPoint" />
          </mxGeometry>
        </mxCell>
        <mxCell id="YfZX0ms7RBEgDN2RC2Rf-8" value="" style="endArrow=none;html=1;rounded=0;entryX=0.25;entryY=0;entryDx=0;entryDy=0;exitX=0;exitY=0.25;exitDx=0;exitDy=0;" parent="1" source="YfZX0ms7RBEgDN2RC2Rf-5" target="YfZX0ms7RBEgDN2RC2Rf-5" edge="1">
          <mxGeometry width="50" height="50" relative="1" as="geometry">
            <mxPoint x="-311.5" y="397.5" as="sourcePoint" />
            <mxPoint x="-261.5" y="347.5" as="targetPoint" />
          </mxGeometry>
        </mxCell>
        <mxCell id="YfZX0ms7RBEgDN2RC2Rf-11" value="Получение заказа" style="text;html=1;align=center;verticalAlign=middle;whiteSpace=wrap;rounded=0;" parent="1" vertex="1">
          <mxGeometry x="-446.5" y="295" width="90" height="30" as="geometry" />
        </mxCell>
        <mxCell id="YfZX0ms7RBEgDN2RC2Rf-12" style="edgeStyle=orthogonalEdgeStyle;rounded=0;orthogonalLoop=1;jettySize=auto;html=1;exitX=1;exitY=0.5;exitDx=0;exitDy=0;entryX=0;entryY=0.5;entryDx=0;entryDy=0;" parent="1" source="YfZX0ms7RBEgDN2RC2Rf-13" target="YfZX0ms7RBEgDN2RC2Rf-48" edge="1">
          <mxGeometry relative="1" as="geometry" />
        </mxCell>
        <mxCell id="YfZX0ms7RBEgDN2RC2Rf-13" value="" style="rounded=0;whiteSpace=wrap;html=1;" parent="1" vertex="1">
          <mxGeometry x="80" y="417.5" width="171.5" height="80" as="geometry" />
        </mxCell>
        <mxCell id="YfZX0ms7RBEgDN2RC2Rf-14" value="" style="endArrow=none;html=1;rounded=0;entryX=1;entryY=0.75;entryDx=0;entryDy=0;exitX=0;exitY=0.75;exitDx=0;exitDy=0;" parent="1" source="YfZX0ms7RBEgDN2RC2Rf-13" target="YfZX0ms7RBEgDN2RC2Rf-13" edge="1">
          <mxGeometry width="50" height="50" relative="1" as="geometry">
            <mxPoint x="372" y="597.5" as="sourcePoint" />
            <mxPoint x="422" y="547.5" as="targetPoint" />
          </mxGeometry>
        </mxCell>
        <mxCell id="YfZX0ms7RBEgDN2RC2Rf-15" value="" style="endArrow=none;html=1;rounded=0;entryX=0.357;entryY=0.994;entryDx=0;entryDy=0;entryPerimeter=0;" parent="1" target="YfZX0ms7RBEgDN2RC2Rf-13" edge="1">
          <mxGeometry width="50" height="50" relative="1" as="geometry">
            <mxPoint x="141.5" y="478" as="sourcePoint" />
            <mxPoint x="422" y="547.5" as="targetPoint" />
          </mxGeometry>
        </mxCell>
        <mxCell id="YfZX0ms7RBEgDN2RC2Rf-16" value="" style="endArrow=none;html=1;rounded=0;entryX=0.25;entryY=0;entryDx=0;entryDy=0;exitX=0;exitY=0.25;exitDx=0;exitDy=0;" parent="1" source="YfZX0ms7RBEgDN2RC2Rf-13" target="YfZX0ms7RBEgDN2RC2Rf-13" edge="1">
          <mxGeometry width="50" height="50" relative="1" as="geometry">
            <mxPoint x="252" y="537.5" as="sourcePoint" />
            <mxPoint x="302" y="487.5" as="targetPoint" />
          </mxGeometry>
        </mxCell>
        <mxCell id="YfZX0ms7RBEgDN2RC2Rf-19" value="Распределение заказов по цехам" style="text;html=1;align=center;verticalAlign=middle;whiteSpace=wrap;rounded=0;" parent="1" vertex="1">
          <mxGeometry x="130.75" y="427.5" width="70" height="30" as="geometry" />
        </mxCell>
        <mxCell id="YfZX0ms7RBEgDN2RC2Rf-20" style="edgeStyle=orthogonalEdgeStyle;rounded=0;orthogonalLoop=1;jettySize=auto;html=1;exitX=1;exitY=0.5;exitDx=0;exitDy=0;entryX=0;entryY=0.75;entryDx=0;entryDy=0;" parent="1" source="YfZX0ms7RBEgDN2RC2Rf-21" target="YfZX0ms7RBEgDN2RC2Rf-43" edge="1">
          <mxGeometry relative="1" as="geometry" />
        </mxCell>
        <mxCell id="YfZX0ms7RBEgDN2RC2Rf-21" value="" style="rounded=0;whiteSpace=wrap;html=1;" parent="1" vertex="1">
          <mxGeometry x="571" y="495" width="134" height="80" as="geometry" />
        </mxCell>
        <mxCell id="YfZX0ms7RBEgDN2RC2Rf-22" value="" style="endArrow=none;html=1;rounded=0;entryX=1;entryY=0.75;entryDx=0;entryDy=0;exitX=0;exitY=0.75;exitDx=0;exitDy=0;" parent="1" source="YfZX0ms7RBEgDN2RC2Rf-21" target="YfZX0ms7RBEgDN2RC2Rf-21" edge="1">
          <mxGeometry width="50" height="50" relative="1" as="geometry">
            <mxPoint x="841" y="675" as="sourcePoint" />
            <mxPoint x="891" y="625" as="targetPoint" />
          </mxGeometry>
        </mxCell>
        <mxCell id="YfZX0ms7RBEgDN2RC2Rf-23" value="" style="endArrow=none;html=1;rounded=0;entryX=0.413;entryY=1.001;entryDx=0;entryDy=0;entryPerimeter=0;" parent="1" target="YfZX0ms7RBEgDN2RC2Rf-21" edge="1">
          <mxGeometry width="50" height="50" relative="1" as="geometry">
            <mxPoint x="626.5" y="555" as="sourcePoint" />
            <mxPoint x="891" y="625" as="targetPoint" />
          </mxGeometry>
        </mxCell>
        <mxCell id="YfZX0ms7RBEgDN2RC2Rf-24" value="" style="endArrow=none;html=1;rounded=0;entryX=0.25;entryY=0;entryDx=0;entryDy=0;exitX=0;exitY=0.25;exitDx=0;exitDy=0;" parent="1" source="YfZX0ms7RBEgDN2RC2Rf-21" target="YfZX0ms7RBEgDN2RC2Rf-21" edge="1">
          <mxGeometry width="50" height="50" relative="1" as="geometry">
            <mxPoint x="721" y="615" as="sourcePoint" />
            <mxPoint x="771" y="565" as="targetPoint" />
          </mxGeometry>
        </mxCell>
        <mxCell id="YfZX0ms7RBEgDN2RC2Rf-25" value="0p." style="text;html=1;align=center;verticalAlign=middle;whiteSpace=wrap;rounded=0;" parent="1" vertex="1">
          <mxGeometry x="566" y="490" width="60" height="40" as="geometry" />
        </mxCell>
        <mxCell id="YfZX0ms7RBEgDN2RC2Rf-26" value="Производство мяса" style="text;html=1;align=center;verticalAlign=middle;whiteSpace=wrap;rounded=0;" parent="1" vertex="1">
          <mxGeometry x="608" y="516" width="60" height="30" as="geometry" />
        </mxCell>
        <mxCell id="YfZX0ms7RBEgDN2RC2Rf-27" style="edgeStyle=orthogonalEdgeStyle;rounded=0;orthogonalLoop=1;jettySize=auto;html=1;exitX=1;exitY=0.5;exitDx=0;exitDy=0;entryX=0;entryY=0.25;entryDx=0;entryDy=0;" parent="1" source="YfZX0ms7RBEgDN2RC2Rf-28" target="YfZX0ms7RBEgDN2RC2Rf-43" edge="1">
          <mxGeometry relative="1" as="geometry" />
        </mxCell>
        <mxCell id="YfZX0ms7RBEgDN2RC2Rf-28" value="" style="rounded=0;whiteSpace=wrap;html=1;" parent="1" vertex="1">
          <mxGeometry x="565" y="330" width="150" height="80" as="geometry" />
        </mxCell>
        <mxCell id="YfZX0ms7RBEgDN2RC2Rf-29" value="" style="endArrow=none;html=1;rounded=0;entryX=1;entryY=0.75;entryDx=0;entryDy=0;exitX=0;exitY=0.75;exitDx=0;exitDy=0;" parent="1" source="YfZX0ms7RBEgDN2RC2Rf-28" target="YfZX0ms7RBEgDN2RC2Rf-28" edge="1">
          <mxGeometry width="50" height="50" relative="1" as="geometry">
            <mxPoint x="835" y="510" as="sourcePoint" />
            <mxPoint x="885" y="460" as="targetPoint" />
          </mxGeometry>
        </mxCell>
        <mxCell id="YfZX0ms7RBEgDN2RC2Rf-30" value="" style="endArrow=none;html=1;rounded=0;entryX=1.048;entryY=0.82;entryDx=0;entryDy=0;entryPerimeter=0;exitX=1.048;exitY=0.178;exitDx=0;exitDy=0;exitPerimeter=0;" parent="1" edge="1">
          <mxGeometry width="50" height="50" relative="1" as="geometry">
            <mxPoint x="621.8799999999997" y="390.3399999999999" as="sourcePoint" />
            <mxPoint x="621.8799999999997" y="409.6" as="targetPoint" />
          </mxGeometry>
        </mxCell>
        <mxCell id="YfZX0ms7RBEgDN2RC2Rf-31" value="" style="endArrow=none;html=1;rounded=0;entryX=0.25;entryY=0;entryDx=0;entryDy=0;exitX=0;exitY=0.25;exitDx=0;exitDy=0;" parent="1" source="YfZX0ms7RBEgDN2RC2Rf-28" target="YfZX0ms7RBEgDN2RC2Rf-28" edge="1">
          <mxGeometry width="50" height="50" relative="1" as="geometry">
            <mxPoint x="715" y="450" as="sourcePoint" />
            <mxPoint x="765" y="400" as="targetPoint" />
          </mxGeometry>
        </mxCell>
        <mxCell id="YfZX0ms7RBEgDN2RC2Rf-33" value="0p." style="text;html=1;align=center;verticalAlign=middle;whiteSpace=wrap;rounded=0;" parent="1" vertex="1">
          <mxGeometry x="560" y="325" width="59" height="40" as="geometry" />
        </mxCell>
        <mxCell id="YfZX0ms7RBEgDN2RC2Rf-34" value="Производство яиц" style="text;html=1;align=center;verticalAlign=middle;whiteSpace=wrap;rounded=0;" parent="1" vertex="1">
          <mxGeometry x="605.75" y="350" width="99.25" height="31" as="geometry" />
        </mxCell>
        <mxCell id="YfZX0ms7RBEgDN2RC2Rf-35" value="" style="rounded=0;whiteSpace=wrap;html=1;" parent="1" vertex="1">
          <mxGeometry x="960" y="414.50000000000006" width="134.5" height="80" as="geometry" />
        </mxCell>
        <mxCell id="YfZX0ms7RBEgDN2RC2Rf-36" value="" style="endArrow=none;html=1;rounded=0;entryX=1;entryY=0.75;entryDx=0;entryDy=0;exitX=0;exitY=0.75;exitDx=0;exitDy=0;" parent="1" source="YfZX0ms7RBEgDN2RC2Rf-35" target="YfZX0ms7RBEgDN2RC2Rf-35" edge="1">
          <mxGeometry width="50" height="50" relative="1" as="geometry">
            <mxPoint x="1207" y="584.14" as="sourcePoint" />
            <mxPoint x="1257" y="534.14" as="targetPoint" />
          </mxGeometry>
        </mxCell>
        <mxCell id="YfZX0ms7RBEgDN2RC2Rf-37" value="" style="endArrow=none;html=1;rounded=0;entryX=1.046;entryY=0.857;entryDx=0;entryDy=0;entryPerimeter=0;exitX=1.04;exitY=0.178;exitDx=0;exitDy=0;exitPerimeter=0;" parent="1" edge="1">
          <mxGeometry width="50" height="50" relative="1" as="geometry">
            <mxPoint x="1020.0000000000001" y="474.6299999999999" as="sourcePoint" />
            <mxPoint x="1020.3600000000002" y="495" as="targetPoint" />
          </mxGeometry>
        </mxCell>
        <mxCell id="YfZX0ms7RBEgDN2RC2Rf-38" value="" style="endArrow=none;html=1;rounded=0;entryX=0.25;entryY=0;entryDx=0;entryDy=0;exitX=0;exitY=0.25;exitDx=0;exitDy=0;" parent="1" source="YfZX0ms7RBEgDN2RC2Rf-35" target="YfZX0ms7RBEgDN2RC2Rf-35" edge="1">
          <mxGeometry width="50" height="50" relative="1" as="geometry">
            <mxPoint x="1087" y="524.14" as="sourcePoint" />
            <mxPoint x="1137" y="474.14" as="targetPoint" />
          </mxGeometry>
        </mxCell>
        <mxCell id="YfZX0ms7RBEgDN2RC2Rf-40" value="0p." style="text;html=1;align=center;verticalAlign=middle;whiteSpace=wrap;rounded=0;" parent="1" vertex="1">
          <mxGeometry x="960" y="410.00000000000006" width="60" height="40" as="geometry" />
        </mxCell>
        <mxCell id="YfZX0ms7RBEgDN2RC2Rf-41" value="Передача заказа в магазин" style="text;html=1;align=center;verticalAlign=middle;whiteSpace=wrap;rounded=0;" parent="1" vertex="1">
          <mxGeometry x="989.31" y="439.64" width="75.87" height="22.5" as="geometry" />
        </mxCell>
        <mxCell id="YfZX0ms7RBEgDN2RC2Rf-42" style="edgeStyle=orthogonalEdgeStyle;rounded=0;orthogonalLoop=1;jettySize=auto;html=1;entryX=0;entryY=0.5;entryDx=0;entryDy=0;" parent="1" source="YfZX0ms7RBEgDN2RC2Rf-43" target="YfZX0ms7RBEgDN2RC2Rf-35" edge="1">
          <mxGeometry relative="1" as="geometry" />
        </mxCell>
        <mxCell id="YfZX0ms7RBEgDN2RC2Rf-43" value="&lt;font style=&quot;font-size: 24px;&quot;&gt;&amp;amp;&lt;/font&gt;" style="rounded=0;whiteSpace=wrap;html=1;" parent="1" vertex="1">
          <mxGeometry x="822" y="432" width="50" height="45" as="geometry" />
        </mxCell>
        <mxCell id="YfZX0ms7RBEgDN2RC2Rf-44" value="" style="endArrow=none;html=1;rounded=0;entryX=0.25;entryY=0;entryDx=0;entryDy=0;exitX=0.25;exitY=1;exitDx=0;exitDy=0;" parent="1" source="YfZX0ms7RBEgDN2RC2Rf-43" target="YfZX0ms7RBEgDN2RC2Rf-43" edge="1">
          <mxGeometry width="50" height="50" relative="1" as="geometry">
            <mxPoint x="556" y="385" as="sourcePoint" />
            <mxPoint x="606" y="335" as="targetPoint" />
          </mxGeometry>
        </mxCell>
        <mxCell id="YfZX0ms7RBEgDN2RC2Rf-45" value="" style="endArrow=classic;html=1;rounded=0;exitX=1;exitY=0.5;exitDx=0;exitDy=0;" parent="1" source="YfZX0ms7RBEgDN2RC2Rf-5" edge="1">
          <mxGeometry width="50" height="50" relative="1" as="geometry">
            <mxPoint x="298.5" y="378.21" as="sourcePoint" />
            <mxPoint x="-190" y="318.71" as="targetPoint" />
          </mxGeometry>
        </mxCell>
        <mxCell id="YfZX0ms7RBEgDN2RC2Rf-46" style="edgeStyle=orthogonalEdgeStyle;rounded=0;orthogonalLoop=1;jettySize=auto;html=1;exitX=1;exitY=0.25;exitDx=0;exitDy=0;entryX=0;entryY=0.5;entryDx=0;entryDy=0;" parent="1" source="YfZX0ms7RBEgDN2RC2Rf-48" target="YfZX0ms7RBEgDN2RC2Rf-28" edge="1">
          <mxGeometry relative="1" as="geometry" />
        </mxCell>
        <mxCell id="YfZX0ms7RBEgDN2RC2Rf-47" style="edgeStyle=orthogonalEdgeStyle;rounded=0;orthogonalLoop=1;jettySize=auto;html=1;exitX=1;exitY=0.75;exitDx=0;exitDy=0;entryX=0;entryY=0.5;entryDx=0;entryDy=0;" parent="1" source="YfZX0ms7RBEgDN2RC2Rf-48" target="YfZX0ms7RBEgDN2RC2Rf-21" edge="1">
          <mxGeometry relative="1" as="geometry">
            <Array as="points">
              <mxPoint x="345" y="460" />
              <mxPoint x="401" y="460" />
              <mxPoint x="401" y="535" />
            </Array>
          </mxGeometry>
        </mxCell>
        <mxCell id="YfZX0ms7RBEgDN2RC2Rf-48" value="&lt;span style=&quot;font-size: 24px;&quot;&gt;&amp;amp;&lt;/span&gt;" style="rounded=0;whiteSpace=wrap;html=1;" parent="1" vertex="1">
          <mxGeometry x="295" y="435" width="50" height="45" as="geometry" />
        </mxCell>
        <mxCell id="YfZX0ms7RBEgDN2RC2Rf-49" value="" style="endArrow=none;html=1;rounded=0;entryX=0.25;entryY=0;entryDx=0;entryDy=0;exitX=0.25;exitY=1;exitDx=0;exitDy=0;" parent="1" source="YfZX0ms7RBEgDN2RC2Rf-48" target="YfZX0ms7RBEgDN2RC2Rf-48" edge="1">
          <mxGeometry width="50" height="50" relative="1" as="geometry">
            <mxPoint x="85" y="392.5" as="sourcePoint" />
            <mxPoint x="135" y="342.5" as="targetPoint" />
          </mxGeometry>
        </mxCell>
        <mxCell id="YfZX0ms7RBEgDN2RC2Rf-50" value="&lt;b&gt;&lt;font style=&quot;font-size: 18px;&quot;&gt;J1&lt;/font&gt;&lt;/b&gt;" style="text;html=1;align=center;verticalAlign=middle;whiteSpace=wrap;rounded=0;" parent="1" vertex="1">
          <mxGeometry x="290" y="481" width="60" height="30" as="geometry" />
        </mxCell>
        <mxCell id="YfZX0ms7RBEgDN2RC2Rf-51" value="&lt;b&gt;&lt;font style=&quot;font-size: 18px;&quot;&gt;J2&lt;/font&gt;&lt;/b&gt;" style="text;html=1;align=center;verticalAlign=middle;whiteSpace=wrap;rounded=0;" parent="1" vertex="1">
          <mxGeometry x="812" y="477" width="60" height="30" as="geometry" />
        </mxCell>
        <mxCell id="YfZX0ms7RBEgDN2RC2Rf-52" value="" style="endArrow=classic;html=1;rounded=0;entryX=0;entryY=0.5;entryDx=0;entryDy=0;" parent="1" edge="1">
          <mxGeometry width="50" height="50" relative="1" as="geometry">
            <mxPoint x="-540" y="305.5" as="sourcePoint" />
            <mxPoint x="-461.5" y="305" as="targetPoint" />
          </mxGeometry>
        </mxCell>
        <mxCell id="YfZX0ms7RBEgDN2RC2Rf-53" value="" style="endArrow=classic;html=1;rounded=0;exitX=1;exitY=0.5;exitDx=0;exitDy=0;" parent="1" source="YfZX0ms7RBEgDN2RC2Rf-35" edge="1">
          <mxGeometry width="50" height="50" relative="1" as="geometry">
            <mxPoint x="960" y="279.64000000000004" as="sourcePoint" />
            <mxPoint x="1200" y="455" as="targetPoint" />
            <Array as="points">
              <mxPoint x="1181" y="455" />
              <mxPoint x="1190" y="455" />
            </Array>
          </mxGeometry>
        </mxCell>
        <mxCell id="YfZX0ms7RBEgDN2RC2Rf-57" value="Заказ на производство яиц" style="text;html=1;align=center;verticalAlign=middle;resizable=0;points=[];autosize=1;strokeColor=none;fillColor=none;" parent="1" vertex="1">
          <mxGeometry x="-640" y="270" width="170" height="30" as="geometry" />
        </mxCell>
        <mxCell id="YfZX0ms7RBEgDN2RC2Rf-58" value="" style="endArrow=classic;html=1;rounded=0;entryX=-0.017;entryY=0.627;entryDx=0;entryDy=0;entryPerimeter=0;" parent="1" target="YfZX0ms7RBEgDN2RC2Rf-5" edge="1">
          <mxGeometry width="50" height="50" relative="1" as="geometry">
            <mxPoint x="-540" y="328" as="sourcePoint" />
            <mxPoint x="-500" y="325" as="targetPoint" />
          </mxGeometry>
        </mxCell>
        <mxCell id="YfZX0ms7RBEgDN2RC2Rf-59" value="Заказ на производство мяса" style="text;html=1;align=center;verticalAlign=middle;resizable=0;points=[];autosize=1;strokeColor=none;fillColor=none;" parent="1" vertex="1">
          <mxGeometry x="-670" y="340" width="180" height="30" as="geometry" />
        </mxCell>
        <mxCell id="YfZX0ms7RBEgDN2RC2Rf-60" value="Количество яиц и мяса" style="text;html=1;align=center;verticalAlign=middle;resizable=0;points=[];autosize=1;strokeColor=none;fillColor=none;" parent="1" vertex="1">
          <mxGeometry x="-341.5" y="285.71" width="150" height="30" as="geometry" />
        </mxCell>
        <mxCell id="YfZX0ms7RBEgDN2RC2Rf-61" value="Количество яиц, которое должно&lt;div&gt;&amp;nbsp;быть произведено в каждом цехе&lt;/div&gt;" style="text;html=1;align=center;verticalAlign=middle;resizable=0;points=[];autosize=1;strokeColor=none;fillColor=none;" parent="1" vertex="1">
          <mxGeometry x="280" y="335" width="210" height="40" as="geometry" />
        </mxCell>
        <mxCell id="YfZX0ms7RBEgDN2RC2Rf-62" value="Количество мяса, которое должно&lt;div&gt;&amp;nbsp;быть произведено в каждом цехе&lt;/div&gt;" style="text;html=1;align=center;verticalAlign=middle;resizable=0;points=[];autosize=1;strokeColor=none;fillColor=none;" parent="1" vertex="1">
          <mxGeometry x="361" y="546" width="210" height="40" as="geometry" />
        </mxCell>
        <mxCell id="YfZX0ms7RBEgDN2RC2Rf-63" value="Готовая продукция&lt;div&gt;Двойная стрелка&lt;/div&gt;" style="text;html=1;align=center;verticalAlign=middle;resizable=0;points=[];autosize=1;strokeColor=none;fillColor=none;" parent="1" vertex="1">
          <mxGeometry x="830" y="355" width="130" height="40" as="geometry" />
        </mxCell>
        <mxCell id="YfZX0ms7RBEgDN2RC2Rf-72" style="edgeStyle=orthogonalEdgeStyle;rounded=0;orthogonalLoop=1;jettySize=auto;html=1;entryX=0;entryY=0.5;entryDx=0;entryDy=0;" parent="1" source="YfZX0ms7RBEgDN2RC2Rf-67" target="YfZX0ms7RBEgDN2RC2Rf-13" edge="1">
          <mxGeometry relative="1" as="geometry" />
        </mxCell>
        <mxCell id="YfZX0ms7RBEgDN2RC2Rf-67" value="" style="rounded=0;whiteSpace=wrap;html=1;" parent="1" vertex="1">
          <mxGeometry x="-190" y="275.71" width="171.5" height="80" as="geometry" />
        </mxCell>
        <mxCell id="YfZX0ms7RBEgDN2RC2Rf-68" value="" style="endArrow=none;html=1;rounded=0;entryX=1;entryY=0.75;entryDx=0;entryDy=0;exitX=0;exitY=0.75;exitDx=0;exitDy=0;" parent="1" source="YfZX0ms7RBEgDN2RC2Rf-67" target="YfZX0ms7RBEgDN2RC2Rf-67" edge="1">
          <mxGeometry width="50" height="50" relative="1" as="geometry">
            <mxPoint x="102" y="455.71" as="sourcePoint" />
            <mxPoint x="152" y="405.71" as="targetPoint" />
          </mxGeometry>
        </mxCell>
        <mxCell id="YfZX0ms7RBEgDN2RC2Rf-69" value="" style="endArrow=none;html=1;rounded=0;entryX=0.357;entryY=0.994;entryDx=0;entryDy=0;entryPerimeter=0;" parent="1" target="YfZX0ms7RBEgDN2RC2Rf-67" edge="1">
          <mxGeometry width="50" height="50" relative="1" as="geometry">
            <mxPoint x="-128.5" y="336.21" as="sourcePoint" />
            <mxPoint x="152" y="405.71" as="targetPoint" />
          </mxGeometry>
        </mxCell>
        <mxCell id="YfZX0ms7RBEgDN2RC2Rf-70" value="" style="endArrow=none;html=1;rounded=0;entryX=0.25;entryY=0;entryDx=0;entryDy=0;exitX=0;exitY=0.25;exitDx=0;exitDy=0;" parent="1" source="YfZX0ms7RBEgDN2RC2Rf-67" target="YfZX0ms7RBEgDN2RC2Rf-67" edge="1">
          <mxGeometry width="50" height="50" relative="1" as="geometry">
            <mxPoint x="-18" y="395.71" as="sourcePoint" />
            <mxPoint x="32" y="345.71" as="targetPoint" />
          </mxGeometry>
        </mxCell>
        <mxCell id="YfZX0ms7RBEgDN2RC2Rf-71" value="Анализ заказа" style="text;html=1;align=center;verticalAlign=middle;whiteSpace=wrap;rounded=0;" parent="1" vertex="1">
          <mxGeometry x="-139.25" y="285.71" width="79.25" height="30" as="geometry" />
        </mxCell>
        <mxCell id="oEcTDy8ypKunwlj7p7P3-5" style="edgeStyle=orthogonalEdgeStyle;rounded=0;orthogonalLoop=1;jettySize=auto;html=1;" edge="1" parent="1" source="YfZX0ms7RBEgDN2RC2Rf-73">
          <mxGeometry relative="1" as="geometry">
            <mxPoint x="80" y="480" as="targetPoint" />
            <Array as="points">
              <mxPoint x="770" y="650" />
              <mxPoint x="770" y="780" />
              <mxPoint y="780" />
              <mxPoint y="480" />
            </Array>
          </mxGeometry>
        </mxCell>
        <mxCell id="YfZX0ms7RBEgDN2RC2Rf-73" value="" style="rounded=0;whiteSpace=wrap;html=1;" parent="1" vertex="1">
          <mxGeometry x="571" y="610" width="134" height="80" as="geometry" />
        </mxCell>
        <mxCell id="YfZX0ms7RBEgDN2RC2Rf-74" value="" style="endArrow=none;html=1;rounded=0;entryX=1;entryY=0.75;entryDx=0;entryDy=0;exitX=0;exitY=0.75;exitDx=0;exitDy=0;" parent="1" source="YfZX0ms7RBEgDN2RC2Rf-73" target="YfZX0ms7RBEgDN2RC2Rf-73" edge="1">
          <mxGeometry width="50" height="50" relative="1" as="geometry">
            <mxPoint x="840" y="795" as="sourcePoint" />
            <mxPoint x="890" y="745" as="targetPoint" />
          </mxGeometry>
        </mxCell>
        <mxCell id="YfZX0ms7RBEgDN2RC2Rf-75" value="" style="endArrow=none;html=1;rounded=0;" parent="1" edge="1">
          <mxGeometry width="50" height="50" relative="1" as="geometry">
            <mxPoint x="626" y="670" as="sourcePoint" />
            <mxPoint x="626" y="690" as="targetPoint" />
          </mxGeometry>
        </mxCell>
        <mxCell id="YfZX0ms7RBEgDN2RC2Rf-76" value="" style="endArrow=none;html=1;rounded=0;entryX=0.25;entryY=0;entryDx=0;entryDy=0;exitX=0;exitY=0.25;exitDx=0;exitDy=0;" parent="1" source="YfZX0ms7RBEgDN2RC2Rf-73" target="YfZX0ms7RBEgDN2RC2Rf-73" edge="1">
          <mxGeometry width="50" height="50" relative="1" as="geometry">
            <mxPoint x="720" y="735" as="sourcePoint" />
            <mxPoint x="770" y="685" as="targetPoint" />
          </mxGeometry>
        </mxCell>
        <mxCell id="YfZX0ms7RBEgDN2RC2Rf-77" value="0p." style="text;html=1;align=center;verticalAlign=middle;whiteSpace=wrap;rounded=0;" parent="1" vertex="1">
          <mxGeometry x="565" y="610" width="60" height="40" as="geometry" />
        </mxCell>
        <mxCell id="YfZX0ms7RBEgDN2RC2Rf-78" value="Производство новых птиц" style="text;html=1;align=center;verticalAlign=middle;whiteSpace=wrap;rounded=0;" parent="1" vertex="1">
          <mxGeometry x="611.5" y="652" width="57" height="6" as="geometry" />
        </mxCell>
        <mxCell id="YfZX0ms7RBEgDN2RC2Rf-83" style="edgeStyle=orthogonalEdgeStyle;rounded=0;orthogonalLoop=1;jettySize=auto;html=1;exitX=1;exitY=0.75;exitDx=0;exitDy=0;entryX=0.001;entryY=0.652;entryDx=0;entryDy=0;entryPerimeter=0;" parent="1" source="YfZX0ms7RBEgDN2RC2Rf-48" target="YfZX0ms7RBEgDN2RC2Rf-73" edge="1">
          <mxGeometry relative="1" as="geometry">
            <Array as="points">
              <mxPoint x="360" y="469" />
              <mxPoint x="360" y="662" />
            </Array>
          </mxGeometry>
        </mxCell>
        <mxCell id="YfZX0ms7RBEgDN2RC2Rf-84" value="Количество птиц, которых нужно произвести&lt;div&gt;чтобы было достаточно птиц для производства яиц и мяса&lt;/div&gt;" style="text;html=1;align=center;verticalAlign=middle;resizable=0;points=[];autosize=1;strokeColor=none;fillColor=none;" parent="1" vertex="1">
          <mxGeometry x="195" y="683" width="350" height="40" as="geometry" />
        </mxCell>
        <mxCell id="oEcTDy8ypKunwlj7p7P3-1" value="План выполнения заказа" style="text;html=1;align=center;verticalAlign=middle;resizable=0;points=[];autosize=1;strokeColor=none;fillColor=none;" vertex="1" parent="1">
          <mxGeometry x="35" y="320" width="160" height="30" as="geometry" />
        </mxCell>
        <mxCell id="oEcTDy8ypKunwlj7p7P3-2" value="Заказ выполнен" style="text;html=1;align=center;verticalAlign=middle;resizable=0;points=[];autosize=1;strokeColor=none;fillColor=none;" vertex="1" parent="1">
          <mxGeometry x="1120" y="417.5" width="110" height="30" as="geometry" />
        </mxCell>
        <mxCell id="oEcTDy8ypKunwlj7p7P3-6" value="Птицы&lt;div&gt;Тут должна быть двойная стрелка, но я не знал, как её поставить&lt;/div&gt;" style="text;html=1;align=center;verticalAlign=middle;resizable=0;points=[];autosize=1;strokeColor=none;fillColor=none;" vertex="1" parent="1">
          <mxGeometry x="640" y="683" width="390" height="40" as="geometry" />
        </mxCell>
        <mxCell id="oEcTDy8ypKunwlj7p7P3-7" value="A.1.1.1" style="text;html=1;align=center;verticalAlign=middle;whiteSpace=wrap;rounded=0;" vertex="1" parent="1">
          <mxGeometry x="-470" y="330" width="60" height="30" as="geometry" />
        </mxCell>
        <mxCell id="oEcTDy8ypKunwlj7p7P3-11" value="A.1.1.2" style="text;html=1;align=center;verticalAlign=middle;whiteSpace=wrap;rounded=0;" vertex="1" parent="1">
          <mxGeometry x="-191.5" y="330" width="60" height="30" as="geometry" />
        </mxCell>
        <mxCell id="oEcTDy8ypKunwlj7p7P3-12" value="A.1.1.3" style="text;html=1;align=center;verticalAlign=middle;whiteSpace=wrap;rounded=0;" vertex="1" parent="1">
          <mxGeometry x="80" y="477" width="60" height="30" as="geometry" />
        </mxCell>
        <mxCell id="oEcTDy8ypKunwlj7p7P3-13" value="A.1.1.4" style="text;html=1;align=center;verticalAlign=middle;whiteSpace=wrap;rounded=0;" vertex="1" parent="1">
          <mxGeometry x="560" y="384.5" width="60" height="30" as="geometry" />
        </mxCell>
        <mxCell id="oEcTDy8ypKunwlj7p7P3-14" value="A.1.1.5" style="text;html=1;align=center;verticalAlign=middle;whiteSpace=wrap;rounded=0;" vertex="1" parent="1">
          <mxGeometry x="565" y="551" width="60" height="30" as="geometry" />
        </mxCell>
        <mxCell id="oEcTDy8ypKunwlj7p7P3-15" value="A.1.1.6" style="text;html=1;align=center;verticalAlign=middle;whiteSpace=wrap;rounded=0;" vertex="1" parent="1">
          <mxGeometry x="560" y="660" width="60" height="30" as="geometry" />
        </mxCell>
        <mxCell id="oEcTDy8ypKunwlj7p7P3-16" value="A.1.1.6" style="text;html=1;align=center;verticalAlign=middle;whiteSpace=wrap;rounded=0;" vertex="1" parent="1">
          <mxGeometry x="957" y="467.5" width="60" height="30" as="geometry" />
        </mxCell>
      </root>
    </mxGraphModel>
  </diagram>
</mxfile>
